<?xml version="1.0" encoding="utf-8"?>
<!-- Generator: Adobe Illustrator 23.0.1, SVG Export Plug-In . SVG Version: 6.00 Build 0)  -->
<svg version="1.1" id="Layer_1" xmlns="http://www.w3.org/2000/svg" xmlns:xlink="http://www.w3.org/1999/xlink" x="0px" y="0px"
	 viewBox="0 0 405 405" style="enable-background:new 0 0 405 405;" xml:space="preserve">
<style type="text/css">
	.st0{fill:#252525;}
	.st1{fill:#FFBE43;}
</style>
<title>rooster_internal_remove</title>
<circle class="st0" cx="202.5" cy="202.5" r="202.5"/>
<path class="st1" d="M281.8,212.8c0.4-0.3,0.4,0.6-0.8-0.1l-1.2,2.2l-4-3.9c-1.4,2.1-1.6,4.6-2.3,7.1l-2.3-1.1
	c-0.4,2.4-0.8,4.9-1.2,7.6l-2.4-1.7c-0.8,3.1-0.4,6.3-3,8.9l-2.5-2.2c-0.5,1.3-1,2.5-1.5,3.7c-0.2,0.3-0.4,0.5-0.6,0.7
	c-0.2-0.2-0.4-0.4-0.5-0.7c-0.7-1.7-1.3-3.4-2-5.1c-0.3-0.7-0.7-1.3-1-1.9h-0.3c-0.1,0.3-0.2,0.7-0.3,1c0,2-1.2,3.9-3,4.8
	c-0.9,0.6-1.5,1.7-1.4,2.8c-0.2,2-0.3,4.1-0.6,6.1c-0.2,0.9-0.5,1.7-1,2.5c-0.1,0.3-0.5,0.4-0.7,0.7c-0.2-0.2-0.5-0.5-0.6-0.8
	c-0.4-1.4-0.8-2.9-1.2-4.3c-0.1-0.3-0.1-0.6-0.2-1c-0.5,1.9-1.2,3.7-2.1,5.5c-1.1,1.6-2.4,3.1-3.8,4.4c-0.2-1.2-0.4-2.5-0.6-3.7
	l-0.3-0.1c-0.6,1.2-1.3,2.3-1.9,3.5c-0.7,1.6-1.9,2.9-3.4,3.8c-0.9,0.5-1.6,1.2-2.1,2c-0.7,1.2-2,2.1-3.4,2.4
	c-0.4,0.1-0.9,0.3-1.3,0.5c-0.7,0.3-0.9,0.8-1,1.6c-0.3,2.6-0.9,5.1-1.4,7.7h-0.5c-0.3-0.8-0.6-1.6-1.1-2.7l-0.5,7.2l-0.3,0.2
	c-0.2-0.2-0.6-0.5-0.6-0.8c-0.6-2.5-1.2-5-1.8-7.5c-0.1-0.8-0.2-1.3-1.2-1.3c-0.2,0-0.6-0.4-0.7-0.7c-0.2-0.6-0.4-1.3-0.6-1.9h-0.3
	c-0.2,0.5-0.3,1.1-0.3,1.6c0.2,2.1-0.6,4.1-1,6.1c-0.1,0.5-0.2,1.1-0.4,1.6c-0.1,0.2-0.2,0.4-0.3,0.5c-0.1-0.1-0.4-0.2-0.4-0.4
	c-1.3-2-2-4.3-2-6.7c-0.1-0.8-0.2-1.6-0.4-2.4c-1.4,0.1-2.8,0.5-4.1,1.2c-1.3,0.6-2.7,1-4.1,1.3c-1.7,0.6-3.4,1.2-5,1.8
	c-0.7,0.2-1.4,0.3-2.1,0.2c-0.8-0.1-1.2,0-1.5,0.9c-0.5,1.4-1.2,2.8-1.9,4.1c-0.1,0.2-0.2,0.4-0.2,0.7c0.1,2.1-0.5,3.3-2.6,4.1
	c-1.1,0.4-2.1,1.2-2.8,2.2c-0.4,0.4-0.8,0.7-1.2,1c-0.1,1.5,0.2,3,0.8,4.4c0.3,0.9,0.5,1.9,0.6,2.9c0.2,0.9,0.4,1.7,0.7,2.5
	c0.3,0.4,0.7,0.8,1.2,1c1.3,0.8,2.7,1.6,4,2.4c0.3,0.3,0.5,0.7,0.5,1.2c0.2,0.9,0,1.3-1.1,1.4c-1.6,0.2-3.2-0.1-4.6-0.8
	c-0.4-0.1-0.8-0.2-1.2-0.1c-2.8,0.7-5.7,1.4-8.5,2.1c-0.2,0.1-0.5,0.2-0.7,0.3c0.7,0.2,1.2,0.3,1.7,0.5c1.3,0.4,2.7,0.7,3.9,1.2
	c0.5,0.2,1.3,0.9,1.2,1c-0.3,0.7-0.8,1.7-1.4,1.9c-0.9,0.3-1.9,0.3-2.9-0.1c-2.3-0.9-3.7-0.6-5.2,1.4c-0.7,1-1.6,1.9-2.4,2.9
	c-2.4,2.8-5.6,3.5-9,3.8c-1,0.1-2.1,0.1-3.1,0c-2-0.2-3.3,0.7-4.6,2.1c-1.2,1.2-2.5,2.4-3.8,3.4c-0.1,0.1-0.4,0.1-0.7,0.2
	c0.2-1.6,0.5-3.1,0.9-4.7c0.4-1.1,1-2.1,1.8-2.8c2.4-2.1,5.2-3.7,8.2-4.6c0.7-0.3,1.4-0.7,2-1.1c0-0.1-0.1-0.2-0.1-0.4
	c-0.5-0.1-1-0.1-1.5-0.1c-2.5,0.1-5.1-0.3-7.5-1.1c-2.2-0.7-4.5-0.5-6.6,0.5c-0.5,0.3-1,0.7-1.4,1.2c-0.9,1.3-2.4,2.1-4,1.9
	c-0.8-0.2-1.5-0.4-2.2-0.8c1.9-1,2.4-2.7,3.2-4.1c0.9-1.3,2.3-2.2,3.8-2.5c3.7-0.9,7.5-1,11.1-0.1c1.7,0.4,3.5,0.7,5.3,0.8
	c-1.4-2-3.5-2.9-5.5-4c-1.8-1.1-4.1-1.3-6.1-0.5c-0.6,0.2-1.3,0.6-1.8,0.9c-1.1,0.6-2.4,0.7-3.5,0.2c0.5-0.6,1-1,1.4-1.5
	c1.2-1.7,3.2-2.6,5.3-2.4c1.8,0.1,3.6,0.1,5.5,0.1c0.3,0,0.7-0.5,0.8-0.8c0.2-0.5,0.7-0.8,1.2-0.8c2.3,0,4.5,0.9,6.1,2.4
	c1,0.9,2.3,0.9,3.5,1.1c0.2,0,0.6-0.3,0.8-0.5c0.2-0.5,0.4-1.1,0.5-1.6c-1.4-0.3-2.7-0.5-3.9-0.9c-0.7-0.2-1.4-0.5-2-1
	c-2.6-2.7-6.7-3.4-10.1-1.7c-0.6,0.3-1.3,0.5-2.1,0.6c-0.5,0-1-0.4-1.6-0.7c1.5-1.2,3-2.4,4.6-3.4c0.9-0.4,1.9-0.6,2.9-0.5
	c2.3-0.1,4.6,0.5,6.6,1.7c1.2,0.8,2.2,1.7,3.4,2.5c0.8,0.5,1.7,0.9,2.6,1.2c-0.1-0.6,0-1-0.2-1.3c-0.8-1.1-1.8-2.1-2.9-3
	c-1-0.6-2-1.1-3.1-1.5c-0.2-0.1-0.4-0.2-0.6-0.2c0.1-0.2,0.2-0.4,0.3-0.6c0.4-0.4,0.8-1,1.1-0.9c1.2,0.1,2.6,0.1,3.5,1.2
	c0.3,0.4,0.7,0.8,1.1,1.2c0.3-1.3,0.2-2.4-0.9-3.2c-0.4-0.3-0.7-0.8-0.9-1.2c-0.7-1.3-1.3-2.6-2.1-3.8c-0.8-0.9-1-2.2-0.8-3.4
	c0.1-0.5-0.4-1.3-0.7-1.9c-0.8-1.4-1.5-2.9-2.1-4.5c-0.9-3.6-3.3-5.9-6.3-7.8c-0.5-0.3-1-0.7-1.5-1.1c-2.3-2-5.2-3.1-7.4-5.4
	c-1-0.8-2.2-1.4-3.5-1.5c-1.5-0.4-2.8-1.2-3.8-2.3c-1.3-1.3-2.8-2.3-4.1-3.5c-3.2-3-6.4-5.9-9.3-9.1c-2-2.3-3.7-4.9-5.1-7.7
	c-1-1.6-2.1-3-3.3-4.4c-1.6-2-2.7-4.4-3.3-7c-0.3-1.4-1-2.7-1.4-4.1c-0.5-1.8-1-3.6-1.4-5.4s-0.6-3.5-1.1-5.2
	c-0.4-1.3-1.1-2.5-1.6-3.8c-0.2-0.5-0.3-1.1-0.2-1.6c0.2-2.6,0.4-5.1,0.7-7.7c0-1.4-0.2-2.7-0.6-4c-0.5-2.1-0.7-4.4-0.4-6.6
	c0.4-4.2,0.7-8.4,1-12.6c0.1-0.8-0.2-1.2-1-1.3c-1.2-0.2-2.3-0.9-3-2c-1-1.3-2.4-2.2-4.1-2.5c-1.3-0.2-2.4-1-2.9-2.1
	c-0.4-0.8-1.4-1.2-1.5-2.2c-0.2-0.5-0.3-1-0.4-1.6c0.1-1.5,0.2-3,0.5-4.5c0.1-0.5,0.7-0.9,1-1.3c0.2-0.3,0.4-0.6,0.6-0.9
	c-0.3-0.2-0.7-0.5-1-0.5c-1,0-1.9,0.2-2.9,0.3c-1.1,0.1-2.3,0.2-3.4,0.3s-1.4,0-1.3-1.3c-1.1,0.2-2.1,0.5-3.1,0.7
	c-0.3,0-0.6-0.1-0.8-0.3c-0.1-0.1,0.1-0.5,0.2-0.7c1.4-1.9,2.9-3.8,4.4-5.6c0.6-0.6,1.3-1.1,2.1-1.4c0.8-0.4,1-1,0.6-1.7
	s-0.7-1.4-1.1-2.1s-0.8-1.3-1.1-2c-1-1.8-0.3-3.8-0.2-5.7c0.1-0.5,0.5-1,0.9-1.4c1.2-1.2,1.9-2.8,2.2-4.5c0.1-0.6,0.1-1.6,1.2-1.4
	c0.1,0,0.2-0.4,0.3-0.6c0.3-0.4,0.7-0.7,1-1.1l0.3,0.2c0.1-0.8,0.2-1.5,0.4-2.3c0.1-0.3,0.3-0.6,0.6-0.8c0.3,0,0.6,0.1,0.8,0.3
	c0.4,1,0.7,2,1,3c0.2,0.9,0.8,1.3,1.9,1.6c-0.3-0.8-0.7-1.6-1.1-2.3c-1.6-2.7-1.5-5.5-0.9-8.4c0-0.1,0.1-0.2,0.3-0.4
	c0.4,0.4,0.8,0.9,1.1,1.4c0.6,1.1,1,2.3,1.5,3.5c0.3,0.4,0.6,0.8,1,1.2c0.6,0.5,1,0.3,1.1-0.5c0-0.3,0-0.6,0-0.9c0-2.8,0-5.7,0-8.6
	c0.7-0.5,1-0.2,1.3,0.7c0.7,2.3,1.6,4.6,2.4,6.8c0.2,0.4,0.4,0.9,0.7,1.3h0.4c0.8-3.2,1.6-6.5,2.4-9.7h0.4c0.2,1,0.5,2,0.7,3
	c0.2,1.4,0.4,2.7,0.6,4.1s0.8,1.6,2.1,1c1.9-0.9,3.4-2.4,4.3-4.2c0.2-0.5,0.4-1.1,0.5-1.7c0.1-0.2,0.3-0.4,0.4-0.6
	c0.2,0.2,0.6,0.3,0.6,0.5c0.1,0.5,0.1,1.1,0.1,1.6c1.4,0.3,1.4,0.4,0.8,1.6c-0.2,0.4-0.3,0.8-0.5,1.3c0.3-0.1,0.4-0.1,0.5-0.2
	c0.8-1,1.6-1,2.2,0.2s1.2,2.3,1.2,3.4c-0.1,1.4,0.6,2.8,0.2,4.2s-0.2,3-1.1,4.3c-0.1,0.2-0.2,0.4-0.1,0.7c0.8,1.1,0.2,2.1-0.4,3.1
	s-0.2,1.2,0.5,1.5c3,1.4,5.9,2.7,8.9,4.2c2.2,1.1,4.2,2.6,6.5,3.6c1.8,0.8,2.7,2.7,4.4,3.5c0.5,0.2,0.9,0.4,1.4,0.7
	c0.9,0.5,1.8,1.2,2.4,2c0.9,1.4,2.3,2.6,3.9,3.2c0.7,0.4,1.2,1,1.6,1.7c0.9,1.9,2.7,2.8,4.2,4.1c0.3,0.3,0.6,0.7,0.8,1.1
	c0.3,0.6,0.6,1.3,0.9,2c0.1,0.2,0.3,0.6,0.5,0.6c1.2,0.1,1.7,1.1,2.2,1.9c1,1.5,1.9,3.1,2.7,4.8c0.7,1.4,1.2,2.8,1.8,4.1
	c0.1,0.2,0.1,0.3,0.2,0.5c2.7,3.8,4.8,8,8.1,11.5c1.4,1.4,2.5,3,3.4,4.7c0.7,1.2,2.2,2.1,3.5,2.9c1.9,1.3,3.9,2.4,5.9,3.7
	c0.5,0.4,0.9,0.8,1.3,1.2c0.1,0.1,0.2,0.3,0.3,0.3c1.5,0.5,3.1,0.8,4.7,1.1c1.5,0.1,3.1,0.2,4.6,0.1c0.2,0,0.3,0,0.5,0l4.7-0.6
	c2.3-0.5,4.5-1.6,6.3-3.2c0.8-0.6,1.6-1.3,2.4-2c2.9-2.7,4.1-6.3,4.4-10.1s0.3-7.4,0.5-11.1c0.3-5.3,1-10.5,2.1-15.6
	c1-4.4,2.7-8.5,5-12.4c2.1-3.5,4.9-6.6,8.2-9.1c2.4-1.9,5-3.7,7.7-5.2c2.5-1.2,5.2-2.1,7.8-2.9c1.7-0.6,3.4-1.2,5.2-1.7
	c0.6-0.1,1.2-0.2,1.8-0.2l7.2-0.7c5.9-0.5,11.8,0,17.5,1.5c5.2,1.3,10.5,2.7,15.7,4.2c4.2,1.2,7.9,3.5,11.7,5.7
	c3.2,2,6.2,4.2,9.1,6.5c1.1,0.9,2.2,2,3.1,3.1c1.4,1.4,2.7,2.7,4,4.1c1.1,1.1,2.2,2.1,2.6,3.7c0.2,0.9,0.7,1.8,1,2.7
	c0.6,1.6,0.9,3.3,1,5c0,0.1,0.1,0.3,0.2,0.4c1.4,1.6,1.6,3.7,2.2,5.6c0.8,2.4,1.3,4.9,1.3,7.4c0,1.8,0.8,3.6,1.2,5.4
	c0.1,0.3,0.2,0.6,0.2,0.9c0,1.6,0,3.3,0,5c0,1,0.1,2.1,0.1,3.1c0,0.4-0.2,0.9-0.2,1.3c-0.1,1.3-0.1,2.5-0.3,3.8s-0.6,2.5-0.7,3.8
	c-0.3,1.8-0.9,3.6-2,5.1c-0.4,0.5-1,1-1.5,1.4c-0.2-0.3-0.4-0.6-0.6-0.9c-1.1-3.3-2.6-6.5-2.9-10.1c-0.2-1.5-0.5-3-0.9-4.5
	c-0.7-3.2-1.4-6.4-2-9.6c-0.9-4.6-3-8.9-5.9-12.6c-1.4-1.9-3-3.7-4.9-5.1c-0.1,0.4-0.2,0.7-0.2,0.9c0.9,2.7,1.8,5.4,2.6,8.1
	c0.1,0.2-0.1,0.5-0.2,0.7c-0.3,0-0.6-0.1-0.8-0.2c-0.4-0.3-0.7-0.7-1-1.1c-0.1,0.4-0.2,0.8-0.3,1.3c0,1.8,0,3.6-0.1,5.5
	c-0.1,1-0.6,2-1.4,2.6c-0.4,0.4-0.7,0.5-1.3,0c-1-0.9-2.2-1.6-3.3-2.5c-1.7-1.4-3.4-2.8-5.2-4.1c-0.7-0.6-1.5-1.1-2.4-1.8
	c-0.7,1.5-1.3,2.9-1.9,4.2c-0.2,0.4-0.4,0.8-0.5,1.1c-0.5,0.8-0.3,1.9,0.3,2.6c1.4,1.8,2.6,3.7,3.9,5.6c0.6,0.8,1.3,1.6,1.9,2.4
	s1.1,1.9,1.6,2.8l-0.2,0.3c-0.4-0.1-0.8-0.2-1.2-0.4c-3.2-1.6-6.4-3.2-9.6-4.8c-1.6-0.8-2.3-0.7-3.4,0.8c-0.9,1.3-1.7,2.6-2.5,3.9
	c-1.3,2.3-0.7,4.6,0.3,6.7c1.8,4,3,8.3,3.5,12.7c0.4,2.8,1,5.5,1.4,8.2c0.2,1.6,0.2,3.2,0.3,4.8c0,0,0,0.1,0,0.1l-1.2,1.4
	c-0.4-0.4-0.8-0.8-1.1-1.2c-0.6-1.3-0.9-2.8-1.5-4c-1.5-3.1-3.2-6.2-4.9-9.2c-0.4-0.7-0.8-1.4-1.3-2.1c-0.2-0.3-0.4-0.5-0.7-0.8
	l-0.4,0.1c0.1,1,0.2,1.9,0.2,2.9c0,1.8-0.2,3.6-0.3,5.4c0,0.2-0.6,0.5-0.9,0.5c-0.8-0.2-1.5-0.4-2.2-0.7c1.7,4-1.3,11.2-1.3,11.2
	 M182.1,277c-0.3,1.4-0.7,2.8-1,4.1c0,0.1,0.2,0.4,0.3,0.4c0.2-0.1,0.4-0.2,0.6-0.3C183.3,279.8,183.4,278.9,182.1,277z"/>
</svg>
